<svg width="57" height="48" viewBox="0 0 57 48" fill="none" xmlns="http://www.w3.org/2000/svg">
<rect width="56.0003" height="48" transform="translate(0.0429688)" fill="#F8F9FA"/>
<path d="M34.0436 12.005L30.9314 12C27.4349 12 25.1753 14.3183 25.1753 17.9064V20.6297H22.046C21.7756 20.6297 21.5566 20.8489 21.5566 21.1193V25.065C21.5566 25.3354 21.7759 25.5544 22.046 25.5544H25.1753V35.5106C25.1753 35.781 25.3942 36 25.6646 36H29.7474C30.0178 36 30.2368 35.7808 30.2368 35.5106V25.5544H33.8956C34.166 25.5544 34.385 25.3354 34.385 25.065L34.3865 21.1193C34.3865 20.9895 34.3348 20.8651 34.2431 20.7733C34.1515 20.6814 34.0267 20.6297 33.8968 20.6297H30.2368V18.3212C30.2368 17.2116 30.5012 16.6483 31.9466 16.6483L34.0431 16.6475C34.3133 16.6475 34.5323 16.4283 34.5323 16.1582V12.4944C34.5323 12.2245 34.3135 12.0055 34.0436 12.005Z" fill="black"/>
</svg>
