<svg width="58" height="48" viewBox="0 0 58 48" fill="none" xmlns="http://www.w3.org/2000/svg">
<rect width="57.0432" height="48" fill="#F8F9FA"/>
<path fill-rule="evenodd" clip-rule="evenodd" d="M28.5228 11.4785C25.1221 11.4785 24.6953 11.4934 23.3597 11.5542C22.0266 11.6152 21.1167 11.8263 20.3205 12.1359C19.497 12.4557 18.7983 12.8836 18.1023 13.5798C17.4058 14.2758 16.978 14.9744 16.6571 15.7977C16.3467 16.5942 16.1354 17.5043 16.0754 18.8369C16.0157 20.1725 16 20.5996 16 24.0003C16 27.401 16.0151 27.8264 16.0757 29.1621C16.137 30.4951 16.348 31.405 16.6574 32.2012C16.9775 33.0248 17.4053 33.7234 18.1016 34.4194C18.7973 35.1159 19.4959 35.5448 20.319 35.8646C21.1157 36.1743 22.0258 36.3853 23.3586 36.4463C24.6943 36.5071 25.1208 36.522 28.5212 36.522C31.9222 36.522 32.3477 36.5071 33.6833 36.4463C35.0163 36.3853 35.9273 36.1743 36.724 35.8646C37.5473 35.5448 38.2449 35.1159 38.9406 34.4194C39.6371 33.7234 40.065 33.0248 40.3858 32.2015C40.6937 31.405 40.905 30.4949 40.9676 29.1623C41.0276 27.8267 41.0432 27.401 41.0432 24.0003C41.0432 20.5996 41.0276 20.1728 40.9676 18.8371C40.905 17.5041 40.6937 16.5942 40.3858 15.798C40.065 14.9744 39.6371 14.2758 38.9406 13.5798C38.2441 12.8833 37.5476 12.4555 36.7232 12.1359C35.925 11.8263 35.0145 11.6152 33.6815 11.5542C32.3458 11.4934 31.9206 11.4785 28.5189 11.4785H28.5228ZM27.3995 13.735C27.6176 13.7347 27.8523 13.7348 28.1055 13.7349L28.5228 13.735C31.8661 13.735 32.2624 13.747 33.5827 13.807C34.8035 13.8628 35.4661 14.0668 35.9075 14.2382C36.4919 14.4652 36.9085 14.7365 37.3465 15.1747C37.7848 15.613 38.0561 16.0304 38.2835 16.6147C38.4549 17.0556 38.6592 17.7182 38.7148 18.9391C38.7748 20.2591 38.7878 20.6556 38.7878 23.9974C38.7878 27.3391 38.7748 27.7356 38.7148 29.0556C38.6589 30.2765 38.4549 30.9391 38.2835 31.38C38.0566 31.9643 37.7848 32.3804 37.3465 32.8184C36.9082 33.2567 36.4921 33.528 35.9075 33.7549C35.4667 33.9271 34.8035 34.1306 33.5827 34.1864C32.2627 34.2464 31.8661 34.2594 28.5228 34.2594C25.1793 34.2594 24.783 34.2464 23.463 34.1864C22.2421 34.1301 21.5795 33.9261 21.1379 33.7547C20.5535 33.5277 20.1361 33.2564 19.6979 32.8181C19.2596 32.3799 18.9883 31.9635 18.7608 31.3789C18.5894 30.9381 18.3852 30.2754 18.3296 29.0546C18.2696 27.7346 18.2576 27.3381 18.2576 23.9942C18.2576 20.6504 18.2696 20.256 18.3296 18.936C18.3854 17.7151 18.5894 17.0525 18.7608 16.6111C18.9878 16.0267 19.2596 15.6094 19.6979 15.1711C20.1361 14.7328 20.5535 14.4615 21.1379 14.2341C21.5793 14.0619 22.2421 13.8584 23.463 13.8023C24.6181 13.7501 25.0658 13.7345 27.3995 13.7319V13.735ZM35.2063 15.8142C34.3767 15.8142 33.7037 16.4864 33.7037 17.3162C33.7037 18.1458 34.3767 18.8188 35.2063 18.8188C36.0358 18.8188 36.7089 18.1458 36.7089 17.3162C36.7089 16.4867 36.0358 15.8136 35.2063 15.8136V15.8142ZM22.0918 24.0003C22.0918 20.4491 24.9708 17.57 28.522 17.5698C32.0732 17.5698 34.9516 20.449 34.9516 24.0003C34.9516 27.5515 32.0734 30.4294 28.5222 30.4294C24.971 30.4294 22.0918 27.5515 22.0918 24.0003ZM32.6966 24.0003C32.6966 21.695 30.8278 19.8264 28.5227 19.8264C26.2174 19.8264 24.3488 21.695 24.3488 24.0003C24.3488 26.3053 26.2174 28.1742 28.5227 28.1742C30.8278 28.1742 32.6966 26.3053 32.6966 24.0003Z" fill="black"/>
</svg>
