<svg width="57" height="48" viewBox="0 0 57 48" fill="none" xmlns="http://www.w3.org/2000/svg">
<rect width="56" height="48" transform="translate(0.0429688)" fill="#F8F9FA"/>
<g clip-path="url(#clip0)">
<path d="M40.0363 36.0002V35.9992H40.0423V27.1972C40.0423 22.8912 39.1153 19.5742 34.0813 19.5742C31.6613 19.5742 30.0373 20.9022 29.3742 22.1612H29.3043V19.9762H24.5312V35.9992H29.5012V28.0652C29.5012 25.9762 29.8972 23.9562 32.4843 23.9562C35.0333 23.9562 35.0712 26.3402 35.0712 28.1992V36.0002H40.0363Z" fill="black"/>
<path d="M16.4395 19.9766H21.4155V35.9996H16.4395V19.9766Z" fill="black"/>
<path d="M18.925 12C17.334 12 16.043 13.291 16.043 14.882C16.043 16.473 17.334 17.791 18.925 17.791C20.516 17.791 21.807 16.473 21.807 14.882C21.806 13.291 20.515 12 18.925 12V12Z" fill="black"/>
</g>
<defs>
<clipPath id="clip0">
<rect width="24" height="24" fill="white" transform="translate(16.043 12)"/>
</clipPath>
</defs>
</svg>
