<svg width="138" height="40" viewBox="0 0 138 40" fill="none" xmlns="http://www.w3.org/2000/svg">
<path d="M28.2468 29.6139V21.9722C28.2468 20.0388 27.9439 18.5818 25.9458 18.5818C23.8561 18.5818 23.281 20.247 23.281 22.3582V29.6139H18.4375V14.9543H23.281L23.2508 17.0653H23.3114C24.1288 15.7574 25.491 14.6875 27.6415 14.6875C31.9709 14.6875 33.0916 17.4225 33.0916 20.9608V29.6139H28.2468Z" fill="white"/>
<path d="M28.2468 29.6139V21.9722C28.2468 20.0388 27.9439 18.5818 25.9458 18.5818C23.8561 18.5818 23.281 20.247 23.281 22.3582V29.6139H18.4375V14.9543H23.281L23.2508 17.0653H23.3114C24.1288 15.7574 25.491 14.6875 27.6415 14.6875C31.9709 14.6875 33.0916 17.4225 33.0916 20.9608V29.6139H28.2468Z" fill="#4B4BBC"/>
<path d="M28.2468 29.6139V21.9722C28.2468 20.0388 27.9439 18.5818 25.9458 18.5818C23.8561 18.5818 23.281 20.247 23.281 22.3582V29.6139H18.4375V14.9543H23.281L23.2508 17.0653H23.3114C24.1288 15.7574 25.491 14.6875 27.6415 14.6875C31.9709 14.6875 33.0916 17.4225 33.0916 20.9608V29.6139H28.2468Z" fill="white"/>
<path d="M41.1875 18.5822V23.8454C41.1875 25.1247 41.2785 26.0158 42.762 26.0158C43.5188 26.0158 44.2151 25.7489 44.2151 25.7489L44.4578 29.4656C44.0939 29.5548 42.762 29.941 41.0057 29.941C37.1303 29.941 36.3127 27.6216 36.3127 24.2621V18.5822H34.1934V14.9847H36.3127V11H41.1875V14.9847H44.4878V18.5822H41.1875Z" fill="white"/>
<path d="M41.1875 18.5822V23.8454C41.1875 25.1247 41.2785 26.0158 42.762 26.0158C43.5188 26.0158 44.2151 25.7489 44.2151 25.7489L44.4578 29.4656C44.0939 29.5548 42.762 29.941 41.0057 29.941C37.1303 29.941 36.3127 27.6216 36.3127 24.2621V18.5822H34.1934V14.9847H36.3127V11H41.1875V14.9847H44.4878V18.5822H41.1875Z" fill="#4B4BBC"/>
<path d="M41.1875 18.5822V23.8454C41.1875 25.1247 41.2785 26.0158 42.762 26.0158C43.5188 26.0158 44.2151 25.7489 44.2151 25.7489L44.4578 29.4656C44.0939 29.5548 42.762 29.941 41.0057 29.941C37.1303 29.941 36.3127 27.6216 36.3127 24.2621V18.5822H34.1934V14.9847H36.3127V11H41.1875V14.9847H44.4878V18.5822H41.1875Z" fill="white"/>
<path d="M60.6483 23.4289H50.0214C50.2333 25.54 51.8686 26.4916 53.8363 26.4916C55.7744 26.4916 57.4691 25.659 58.3181 25.0943L60.225 27.5625C59.741 27.9189 57.7723 29.9404 53.1399 29.9404C48.5379 29.9404 45.1777 27.1458 45.1777 22.2985C45.1777 17.4524 48.8106 14.6875 53.2309 14.6875C57.6509 14.6875 60.7089 17.5715 60.7089 21.8528C60.7089 22.5666 60.6483 23.4289 60.6483 23.4289ZM53.1399 17.7789C51.1421 17.7789 50.1124 19.3252 50.0518 20.7223H56.1978C56.1676 19.3847 55.1693 17.7789 53.1399 17.7789Z" fill="white"/>
<path d="M60.6483 23.4289H50.0214C50.2333 25.54 51.8686 26.4916 53.8363 26.4916C55.7744 26.4916 57.4691 25.659 58.3181 25.0943L60.225 27.5625C59.741 27.9189 57.7723 29.9404 53.1399 29.9404C48.5379 29.9404 45.1777 27.1458 45.1777 22.2985C45.1777 17.4524 48.8106 14.6875 53.2309 14.6875C57.6509 14.6875 60.7089 17.5715 60.7089 21.8528C60.7089 22.5666 60.6483 23.4289 60.6483 23.4289ZM53.1399 17.7789C51.1421 17.7789 50.1124 19.3252 50.0518 20.7223H56.1978C56.1676 19.3847 55.1693 17.7789 53.1399 17.7789Z" fill="#4B4BBC"/>
<path d="M60.6483 23.4289H50.0214C50.2333 25.54 51.8686 26.4916 53.8363 26.4916C55.7744 26.4916 57.4691 25.659 58.3181 25.0943L60.225 27.5625C59.741 27.9189 57.7723 29.9404 53.1399 29.9404C48.5379 29.9404 45.1777 27.1458 45.1777 22.2985C45.1777 17.4524 48.8106 14.6875 53.2309 14.6875C57.6509 14.6875 60.7089 17.5715 60.7089 21.8528C60.7089 22.5666 60.6483 23.4289 60.6483 23.4289ZM53.1399 17.7789C51.1421 17.7789 50.1124 19.3252 50.0518 20.7223H56.1978C56.1676 19.3847 55.1693 17.7789 53.1399 17.7789Z" fill="white"/>
<path d="M62.7031 11H67.547V29.6143H62.7031V11Z" fill="white"/>
<path d="M62.7031 11H67.547V29.6143H62.7031V11Z" fill="#4B4BBC"/>
<path d="M62.7031 11H67.547V29.6143H62.7031V11Z" fill="white"/>
<path d="M77.7349 14.6875C73.0096 14.6875 69.4414 17.6043 69.4414 22.3292C69.4414 27.0583 73.0096 29.9433 77.7349 29.9433C82.4593 29.9433 86.0001 27.0583 86.0001 22.3292C86.0001 17.6043 82.4593 14.6875 77.7349 14.6875ZM77.7257 26.194C75.3269 26.194 73.5087 24.7291 73.5087 22.3245C73.5087 19.9196 75.3269 18.4368 77.7257 18.4368C80.1291 18.4368 81.9328 19.9196 81.9328 22.3245C81.9328 24.7291 80.1291 26.194 77.7257 26.194Z" fill="white"/>
<path d="M77.7349 14.6875C73.0096 14.6875 69.4414 17.6043 69.4414 22.3292C69.4414 27.0583 73.0096 29.9433 77.7349 29.9433C82.4593 29.9433 86.0001 27.0583 86.0001 22.3292C86.0001 17.6043 82.4593 14.6875 77.7349 14.6875ZM77.7257 26.194C75.3269 26.194 73.5087 24.7291 73.5087 22.3245C73.5087 19.9196 75.3269 18.4368 77.7257 18.4368C80.1291 18.4368 81.9328 19.9196 81.9328 22.3245C81.9328 24.7291 80.1291 26.194 77.7257 26.194Z" fill="#4B4BBC"/>
<path d="M77.7349 14.6875C73.0096 14.6875 69.4414 17.6043 69.4414 22.3292C69.4414 27.0583 73.0096 29.9433 77.7349 29.9433C82.4593 29.9433 86.0001 27.0583 86.0001 22.3292C86.0001 17.6043 82.4593 14.6875 77.7349 14.6875ZM77.7257 26.194C75.3269 26.194 73.5087 24.7291 73.5087 22.3245C73.5087 19.9196 75.3269 18.4368 77.7257 18.4368C80.1291 18.4368 81.9328 19.9196 81.9328 22.3245C81.9328 24.7291 80.1291 26.194 77.7257 26.194Z" fill="white"/>
<path d="M8.29261 14.6875C3.56822 14.6875 0 17.6043 0 22.3292C0 27.0583 3.56822 29.9433 8.29261 29.9433C13.0181 29.9433 16.5591 27.0583 16.5591 22.3292C16.5591 17.6043 13.0181 14.6875 8.29261 14.6875ZM8.28342 26.194C5.88552 26.194 4.06642 24.7291 4.06642 22.3245C4.06642 19.9196 5.88552 18.4368 8.28342 18.4368C10.6868 18.4368 12.4916 19.9196 12.4916 22.3245C12.4916 24.7291 10.6868 26.194 8.28342 26.194Z" fill="white"/>
<path d="M8.29261 14.6875C3.56822 14.6875 0 17.6043 0 22.3292C0 27.0583 3.56822 29.9433 8.29261 29.9433C13.0181 29.9433 16.5591 27.0583 16.5591 22.3292C16.5591 17.6043 13.0181 14.6875 8.29261 14.6875ZM8.28342 26.194C5.88552 26.194 4.06642 24.7291 4.06642 22.3245C4.06642 19.9196 5.88552 18.4368 8.28342 18.4368C10.6868 18.4368 12.4916 19.9196 12.4916 22.3245C12.4916 24.7291 10.6868 26.194 8.28342 26.194Z" fill="#4B4BBC"/>
<path d="M8.29261 14.6875C3.56822 14.6875 0 17.6043 0 22.3292C0 27.0583 3.56822 29.9433 8.29261 29.9433C13.0181 29.9433 16.5591 27.0583 16.5591 22.3292C16.5591 17.6043 13.0181 14.6875 8.29261 14.6875ZM8.28342 26.194C5.88552 26.194 4.06642 24.7291 4.06642 22.3245C4.06642 19.9196 5.88552 18.4368 8.28342 18.4368C10.6868 18.4368 12.4916 19.9196 12.4916 22.3245C12.4916 24.7291 10.6868 26.194 8.28342 26.194Z" fill="white"/>
<path d="M118 2.03687C127.904 2.03687 135.963 10.0951 135.963 19.9993C135.963 29.9045 127.904 37.9629 118 37.9629C108.095 37.9629 100.037 29.9045 100.037 19.9993C100.037 10.0951 108.095 2.03687 118 2.03687ZM118 0C106.955 0 98 8.95395 98 19.9993C98 31.0459 106.955 40 118 40C129.045 40 138 31.0459 138 19.9993C138 8.95395 129.045 0 118 0Z" fill="white"/>
<path d="M118 2.03687C127.904 2.03687 135.963 10.0951 135.963 19.9993C135.963 29.9045 127.904 37.9629 118 37.9629C108.095 37.9629 100.037 29.9045 100.037 19.9993C100.037 10.0951 108.095 2.03687 118 2.03687ZM118 0C106.955 0 98 8.95395 98 19.9993C98 31.0459 106.955 40 118 40C129.045 40 138 31.0459 138 19.9993C138 8.95395 129.045 0 118 0Z" fill="#4B4BBC"/>
<path d="M118 2.03687C127.904 2.03687 135.963 10.0951 135.963 19.9993C135.963 29.9045 127.904 37.9629 118 37.9629C108.095 37.9629 100.037 29.9045 100.037 19.9993C100.037 10.0951 108.095 2.03687 118 2.03687ZM118 0C106.955 0 98 8.95395 98 19.9993C98 31.0459 106.955 40 118 40C129.045 40 138 31.0459 138 19.9993C138 8.95395 129.045 0 118 0Z" fill="white"/>
<path d="M118.001 6.03667C125.699 6.03667 131.964 12.3013 131.964 20C131.964 27.6997 125.699 33.9631 118.001 33.9631C110.302 33.9631 104.038 27.6997 104.038 20C104.038 12.3013 110.302 6.03667 118.001 6.03667ZM118.001 4C109.165 4 102.002 11.1634 102.002 20C102.002 28.8364 109.165 35.9998 118.001 35.9998C126.837 35.9998 134 28.8364 134 20C134 11.1634 126.837 4 118.001 4Z" fill="white"/>
<path d="M118.001 6.03667C125.699 6.03667 131.964 12.3013 131.964 20C131.964 27.6997 125.699 33.9631 118.001 33.9631C110.302 33.9631 104.038 27.6997 104.038 20C104.038 12.3013 110.302 6.03667 118.001 6.03667ZM118.001 4C109.165 4 102.002 11.1634 102.002 20C102.002 28.8364 109.165 35.9998 118.001 35.9998C126.837 35.9998 134 28.8364 134 20C134 11.1634 126.837 4 118.001 4Z" fill="#4B4BBC"/>
<path d="M118.001 6.03667C125.699 6.03667 131.964 12.3013 131.964 20C131.964 27.6997 125.699 33.9631 118.001 33.9631C110.302 33.9631 104.038 27.6997 104.038 20C104.038 12.3013 110.302 6.03667 118.001 6.03667ZM118.001 4C109.165 4 102.002 11.1634 102.002 20C102.002 28.8364 109.165 35.9998 118.001 35.9998C126.837 35.9998 134 28.8364 134 20C134 11.1634 126.837 4 118.001 4Z" fill="white"/>
<path d="M118 10.0388C123.493 10.0388 127.963 14.5083 127.963 20.0012C127.963 25.4954 123.493 29.9649 118 29.9649C112.506 29.9649 108.037 25.4954 108.037 20.0012C108.037 14.5083 112.506 10.0388 118 10.0388ZM118 8.00195C111.373 8.00195 106 13.3741 106 20.0012C106 26.6286 111.373 32.0018 118 32.0018C124.627 32.0018 130 26.6286 130 20.0012C130 13.3741 124.627 8.00195 118 8.00195Z" fill="white"/>
<path d="M118 10.0388C123.493 10.0388 127.963 14.5083 127.963 20.0012C127.963 25.4954 123.493 29.9649 118 29.9649C112.506 29.9649 108.037 25.4954 108.037 20.0012C108.037 14.5083 112.506 10.0388 118 10.0388ZM118 8.00195C111.373 8.00195 106 13.3741 106 20.0012C106 26.6286 111.373 32.0018 118 32.0018C124.627 32.0018 130 26.6286 130 20.0012C130 13.3741 124.627 8.00195 118 8.00195Z" fill="#4B4BBC"/>
<path d="M118 10.0388C123.493 10.0388 127.963 14.5083 127.963 20.0012C127.963 25.4954 123.493 29.9649 118 29.9649C112.506 29.9649 108.037 25.4954 108.037 20.0012C108.037 14.5083 112.506 10.0388 118 10.0388ZM118 8.00195C111.373 8.00195 106 13.3741 106 20.0012C106 26.6286 111.373 32.0018 118 32.0018C124.627 32.0018 130 26.6286 130 20.0012C130 13.3741 124.627 8.00195 118 8.00195Z" fill="white"/>
</svg>





