<svg width="12" height="12" viewBox="0 0 12 12" fill="none" xmlns="http://www.w3.org/2000/svg">
<path d="M2 11.6H9C9.88223 11.6 10.6 10.8822 10.6 10V6C10.6 5.66821 10.3312 5.4 10 5.4C9.66884 5.4 9.4 5.66821 9.4 6V10C9.4 10.2207 9.22034 10.4 9 10.4H2C1.77966 10.4 1.6 10.2207 1.6 10V3C1.6 2.77929 1.77966 2.6 2 2.6H6C6.33116 2.6 6.6 2.33179 6.6 2C6.6 1.66821 6.33116 1.4 6 1.4H2C1.11777 1.4 0.4 2.11777 0.4 3V10C0.4 10.8822 1.11777 11.6 2 11.6Z" fill="white" stroke="white" stroke-width="0.2"/>
<path d="M11.0001 0.4H8.00013C7.75778 0.4 7.53876 0.545768 7.44575 0.770214C7.35273 0.99466 7.40437 1.25266 7.57592 1.42421L8.6517 2.5L5.07591 6.07579C4.84136 6.31034 4.84136 6.68966 5.07591 6.92421C5.19288 7.04117 5.34662 7.1 5.50012 7.1C5.65363 7.1 5.80737 7.04117 5.92434 6.92421L9.50013 3.34842L10.5759 4.42421C10.6905 4.53882 10.8441 4.6 11.0001 4.6C11.077 4.6 11.1551 4.5857 11.23 4.55434C11.454 4.46177 11.6001 4.24223 11.6001 4V1C11.6001 0.668206 11.3313 0.4 11.0001 0.4Z" fill="white" stroke="white" stroke-width="0.2"/>
</svg>
