<svg width="16" height="12" viewBox="0 0 16 12" fill="none" xmlns="http://www.w3.org/2000/svg">
<path d="M8.00018 3.81836C6.79653 3.81836 5.81836 4.79653 5.81836 6.00017C5.81836 7.20382 6.79653 8.18199 8.00018 8.18199C9.20383 8.18199 10.182 7.20382 10.182 6.00017C10.182 4.79653 9.20379 3.81836 8.00018 3.81836Z" fill="#2B2A29"/>
<path d="M8.00002 0.544922C4.36364 0.544922 1.25819 2.80672 0 5.99947C1.25819 9.19219 4.36364 11.454 8.00002 11.454C11.64 11.454 14.7418 9.19219 16 5.99947C14.7418 2.80672 11.64 0.544922 8.00002 0.544922ZM8.00002 9.63581C5.99274 9.63581 4.36364 8.00671 4.36364 5.99944C4.36364 3.99216 5.99274 2.36309 8.00002 2.36309C10.0073 2.36309 11.6364 3.9922 11.6364 5.99947C11.6364 8.00675 10.0073 9.63581 8.00002 9.63581Z" fill="#2B2A29"/>
</svg>
