<svg width="126" height="127" viewBox="0 0 126 127" fill="none" xmlns="http://www.w3.org/2000/svg">
<rect y="1" width="126" height="126" rx="63" fill="#F1F2F4"/>
<g clip-path="url(#clip0)">
<path d="M63.0038 18C49.8609 18 39.1172 28.7437 39.1172 41.8867C39.1172 55.0296 49.8609 65.7733 63.0038 65.7733C76.1467 65.7733 86.8904 55.0296 86.8904 41.8867C86.8904 28.7437 76.1467 18 63.0038 18Z" fill="#DDDDDD"/>
<path d="M103.997 84.866C103.371 83.3013 102.537 81.841 101.598 80.485C96.8001 73.3919 89.3944 68.6981 81.0497 67.5507C80.0067 67.4465 78.8593 67.6549 78.0248 68.2808C73.6438 71.5144 68.4285 73.1833 63.0043 73.1833C57.5801 73.1833 52.3648 71.5144 47.9838 68.2808C47.1493 67.6549 46.0019 67.3421 44.9589 67.5507C36.6142 68.6981 29.1041 73.3919 24.4102 80.485C23.4715 81.841 22.6369 83.4057 22.0112 84.866C21.6983 85.4919 21.8026 86.222 22.1154 86.8479C22.95 88.3081 23.9929 89.7686 24.9317 91.0202C26.392 93.0022 27.9567 94.7753 29.73 96.4442C31.1902 97.9044 32.8591 99.2605 34.5282 100.617C42.7685 106.771 52.6779 110.004 62.9001 110.004C73.1223 110.004 83.0317 106.771 91.2719 100.617C92.9408 99.3649 94.6097 97.9044 96.0702 96.4442C97.7391 94.7753 99.408 93.002 100.868 91.0202C101.911 89.6642 102.85 88.3081 103.685 86.8479C104.206 86.222 104.31 85.4917 103.997 84.866Z" fill="#DDDDDD"/>
</g>
<rect x="78" y="78" width="48" height="48" rx="24" fill="#4E4EBC"/>
<g clip-path="url(#clip1)">
<path d="M103.411 98.0156L96.8081 104.619C96.7749 104.652 96.7509 104.694 96.7395 104.739L96.0076 107.677C95.9857 107.765 96.0117 107.859 96.0762 107.924C96.1251 107.972 96.1916 108 96.2597 108C96.2805 108 96.3018 107.997 96.3226 107.992L99.26 107.26C99.3058 107.248 99.3474 107.224 99.3806 107.191L105.984 100.589L103.411 98.0156Z" fill="white"/>
<path d="M107.62 97.1149L106.885 96.38C106.394 95.8887 105.537 95.8892 105.047 96.38L104.146 97.2803L106.719 99.8532L107.62 98.9529C107.865 98.7077 108 98.3812 108 98.034C108 97.6868 107.865 97.3603 107.62 97.1149Z" fill="white"/>
</g>
<defs>
<clipPath id="clip0">
<rect width="92" height="92" fill="white" transform="translate(17 18)"/>
</clipPath>
<clipPath id="clip1">
<rect width="12" height="12" fill="white" transform="translate(96 96)"/>
</clipPath>
</defs>
</svg>
