<svg width="40" height="40" viewBox="0 0 40 40" fill="none" xmlns="http://www.w3.org/2000/svg">
<g clip-path="url(#clip0)">
<path d="M0.833359 0H39.1667C39.6269 0 40 0.373125 40 0.833359V39.1667C40 39.627 39.6269 40.0001 39.1666 40.0001H0.833359C0.373125 40 0 39.6269 0 39.1666V0.833359C0 0.373125 0.373125 0 0.833359 0Z" fill="#90CAF9"/>
<path d="M4.16637 3.33301H35.833C36.2932 3.33301 36.6664 3.70613 36.6664 4.16637V35.833C36.6664 36.2932 36.2932 36.6664 35.833 36.6664H4.16637C3.70613 36.6664 3.33301 36.2932 3.33301 35.833V4.16629C3.33309 3.70605 3.70613 3.33301 4.16637 3.33301Z" fill="#283593"/>
<path d="M12.5004 28.3335C12.0402 28.3335 11.667 27.9604 11.667 27.5002V12.5002C11.6633 12.0803 11.9725 11.7231 12.3887 11.6668C14.827 11.3335 18.147 11.3052 20.1337 13.0435C21.1644 13.9587 21.7276 15.2897 21.667 16.6668C21.6494 18.3569 20.7559 19.9167 19.307 20.7868C17.5262 21.8948 15.4001 22.3088 13.3337 21.9502V27.5002C13.3337 27.9604 12.9606 28.3335 12.5004 28.3335ZM13.3337 20.2435C15.0666 20.6259 16.8803 20.3218 18.3937 19.3952C19.3781 18.838 19.9906 17.798 20.0004 16.6668C20.0545 15.7742 19.7001 14.9053 19.037 14.3052C17.3446 13.2274 15.3008 12.8463 13.3337 13.2418V20.2435H13.3337Z" fill="#90CAF9"/>
<path d="M26.7369 28.3722C25.5908 28.3806 24.4774 27.9893 23.5886 27.2655C23.2576 26.9433 23.2506 26.414 23.5727 26.083C23.8949 25.7521 24.4243 25.7451 24.7552 26.0672C25.5586 26.662 26.5939 26.8469 27.5536 26.5672C27.7486 26.4838 28.3436 26.2338 28.3436 25.0055C28.3436 23.9039 27.7502 23.5922 26.2919 23.0972C25.0369 22.6672 23.3336 22.0938 23.3336 20.0005C23.2497 18.7025 23.9929 17.4925 25.1886 16.9805C26.7292 16.3854 28.4713 16.6718 29.7402 17.7289C30.0748 18.045 30.0897 18.5726 29.7736 18.9072C29.4574 19.2418 28.9298 19.2568 28.5952 18.9406C27.8104 18.3438 26.7778 18.1827 25.8486 18.5122C25.2705 18.7691 24.9268 19.3722 25.0003 20.0005C25.0003 20.8222 25.5003 21.0689 26.8153 21.5155C28.1669 21.9705 30.0003 22.5939 30.0003 25.0005C30.1283 26.3137 29.4011 27.5614 28.1953 28.0972C27.7325 28.2854 27.2365 28.379 26.7369 28.3722Z" fill="#90CAF9"/>
</g>
<defs>
<clipPath id="clip0">
<rect width="40" height="40" fill="white"/>
</clipPath>
</defs>
</svg>
