<svg width="274" height="140" viewBox="0 0 274 140" fill="none" xmlns="http://www.w3.org/2000/svg">
<g clip-path="url(#clip0)">
<rect y="55.5947" width="174.585" height="28.2848" rx="14.1424" fill="#F9FAFB"/>
<rect x="43.8901" y="34.1367" width="130.695" height="28.2848" rx="14.1424" fill="#F9FAFB"/>
<rect x="136.547" y="111.188" width="92.6571" height="28.2848" rx="14.1424" fill="#F9FAFB"/>
<rect x="157" y="46.8164" width="117.041" height="51.6929" rx="25.8465" fill="#F9FAFB"/>
<rect x="137.523" width="98.5091" height="24.3834" rx="12.1917" fill="#F9FAFB"/>
<rect x="29.2599" y="92.6572" width="34.1368" height="32.1861" rx="16.0931" fill="#F9FAFB"/>
<rect x="74.1257" y="91.6816" width="137.523" height="32.1861" rx="16.0931" fill="#F9FAFB"/>
<path d="M161.446 31.7656H149.141V19.4609C149.141 18.0826 148.058 17 146.68 17H107.383C103.297 17 100 20.2975 100 24.3828V93.6172C100 97.7022 103.297 101 107.383 101H156.524C160.609 101 163.906 97.7022 163.906 93.6172V34.2266C163.906 32.8483 162.824 31.7656 161.446 31.7656Z" fill="#5F5FD8"/>
<path d="M163.906 34.2266V93.6172C163.906 97.7022 160.609 101 156.524 101H131.914V17H146.68C148.058 17 149.141 18.0826 149.141 19.4609V31.7656H161.446C162.824 31.7656 163.906 32.8483 163.906 34.2266Z" fill="#1D1D72"/>
<path d="M163.906 36.6875H146.68C145.32 36.6875 144.219 35.5868 144.219 34.2266V17H149.583C151.515 17 153.409 17.7834 154.774 19.1509L161.758 26.1371C163.123 27.5071 163.906 29.3959 163.906 31.3233V36.6875Z" fill="#313192"/>
<path d="M146.68 46.5312H112.305C109.057 46.5312 109.057 41.6094 112.305 41.6094H146.68C149.928 41.6094 149.928 46.5312 146.68 46.5312Z" fill="#1D1D72"/>
<path d="M136.836 56.375H112.305C109.057 56.375 109.057 51.4531 112.305 51.4531H136.836C140.084 51.4531 140.084 56.375 136.836 56.375Z" fill="#1D1D72"/>
<path d="M136.836 66.2188H112.305C109.057 66.2188 109.057 61.2969 112.305 61.2969H136.836C140.084 61.2969 140.084 66.2188 136.836 66.2188Z" fill="#1D1D72"/>
<path d="M136.836 76.0625H112.305C109.057 76.0625 109.057 71.1406 112.305 71.1406H136.836C140.084 71.1406 140.084 76.0625 136.836 76.0625Z" fill="#1D1D72"/>
<path d="M146.68 91.1562H131.914C128.666 91.1562 128.666 86.2344 131.914 86.2344H146.68C149.928 86.2344 149.928 91.1562 146.68 91.1562Z" fill="#1D1D72"/>
<path d="M136.836 76.0625H131.914V71.1406H136.836C140.084 71.1406 140.084 76.0625 136.836 76.0625Z" fill="#313192"/>
<path d="M136.836 66.2188H131.914V61.2969H136.836C140.084 61.2969 140.084 66.2188 136.836 66.2188Z" fill="#313192"/>
<path d="M136.836 56.375H131.914V51.4531H136.836C140.084 51.4531 140.084 56.375 136.836 56.375Z" fill="#313192"/>
<path d="M146.68 91.1562H131.914V86.2344H146.68C149.928 86.2344 149.928 91.1562 146.68 91.1562Z" fill="#313192"/>
<path d="M146.68 46.5312H131.914V41.6094H146.68C149.928 41.6094 149.928 46.5312 146.68 46.5312Z" fill="#313192"/>
<g clip-path="url(#clip1)">
<path d="M168 119C181.255 119 192 108.255 192 95C192 81.7452 181.255 71 168 71C154.745 71 144 81.7452 144 95C144 108.255 154.745 119 168 119Z" fill="#41DD8C"/>
<path d="M161.868 105.826L174.208 118.167C184.429 115.442 192 106.129 192 94.9999C192 94.7728 192 94.5456 192 94.3185L182.309 85.3848L161.868 105.826Z" fill="#313192"/>
<path d="M168.605 100.375C169.665 101.435 169.665 103.252 168.605 104.312L166.41 106.508C165.35 107.568 163.533 107.568 162.473 106.508L152.858 96.8171C151.798 95.7572 151.798 93.9401 152.858 92.8802L155.053 90.6846C156.113 89.6247 157.93 89.6247 158.99 90.6846L168.605 100.375Z" fill="white"/>
<path d="M177.009 83.6436C178.069 82.5836 179.886 82.5836 180.946 83.6436L183.142 85.8392C184.202 86.8991 184.202 88.7161 183.142 89.7761L166.485 106.357C165.425 107.416 163.608 107.416 162.549 106.357L160.353 104.161C159.293 103.101 159.293 101.284 160.353 100.224L177.009 83.6436Z" fill="white"/>
</g>
</g>
<defs>
<clipPath id="clip0">
<rect width="274" height="140" fill="white"/>
</clipPath>
<clipPath id="clip1">
<rect width="48" height="48" fill="white" transform="translate(144 71)"/>
</clipPath>
</defs>
</svg>
