<svg width="274" height="140" viewBox="0 0 274 140" fill="none" xmlns="http://www.w3.org/2000/svg">
<rect y="55.5947" width="174.585" height="28.2848" rx="14.1424" fill="#F9FAFB"/>
<rect x="43.8906" y="34.1367" width="130.695" height="28.2848" rx="14.1424" fill="#F9FAFB"/>
<rect x="136.547" y="111.188" width="92.6571" height="28.2848" rx="14.1424" fill="#F9FAFB"/>
<rect x="157" y="46.8164" width="117.041" height="51.6929" rx="25.8465" fill="#F9FAFB"/>
<rect x="137.522" width="98.5091" height="24.3834" rx="12.1917" fill="#F9FAFB"/>
<rect x="29.2598" y="92.6572" width="34.1368" height="32.1861" rx="16.0931" fill="#F9FAFB"/>
<rect x="74.126" y="91.6816" width="137.523" height="32.1861" rx="16.0931" fill="#F9FAFB"/>
<g clip-path="url(#clip0)">
<path d="M160.366 32.9327H148.364V20.9315C148.364 19.5872 147.309 18.5312 145.964 18.5312H107.636C103.652 18.5312 100.436 21.7474 100.436 25.732V93.2589C100.436 97.2431 103.652 100.46 107.636 100.46H155.565C159.55 100.46 162.766 97.2431 162.766 93.2589V35.333C162.766 33.9887 161.71 32.9327 160.366 32.9327Z" fill="#5F5FD8"/>
<path d="M162.766 35.333V93.2589C162.766 97.2431 159.55 100.46 155.565 100.46H131.562V18.5312H145.964C147.308 18.5312 148.364 19.5872 148.364 20.9315V32.9327H160.365C161.71 32.9327 162.766 33.9887 162.766 35.333Z" fill="#1D1D72"/>
<path d="M162.765 37.7332H145.964C144.637 37.7332 143.563 36.6597 143.563 35.333V18.5312H148.795C150.68 18.5312 152.527 19.2953 153.858 20.6291L160.67 27.443C162.001 28.7792 162.765 30.6214 162.765 32.5013V37.7332Z" fill="#313192"/>
<path d="M145.964 47.3347H112.436C109.269 47.3347 109.269 42.5342 112.436 42.5342H145.964C149.132 42.5342 149.132 47.3347 145.964 47.3347Z" fill="#1D1D72"/>
<path d="M136.363 56.9353H112.436C109.269 56.9353 109.269 52.1348 112.436 52.1348H136.363C139.531 52.1348 139.531 56.9353 136.363 56.9353Z" fill="#1D1D72"/>
<path d="M136.363 66.5368H112.436C109.269 66.5368 109.269 61.7363 112.436 61.7363H136.363C139.531 61.7363 139.531 66.5368 136.363 66.5368Z" fill="#1D1D72"/>
<path d="M136.363 76.1374H112.436C109.269 76.1374 109.269 71.3369 112.436 71.3369H136.363C139.531 71.3369 139.531 76.1374 136.363 76.1374Z" fill="#1D1D72"/>
<path d="M145.964 90.8591H131.562C128.395 90.8591 128.395 86.0586 131.562 86.0586H145.964C149.132 86.0586 149.132 90.8591 145.964 90.8591Z" fill="#1D1D72"/>
<path d="M136.363 76.1374H131.562V71.3369H136.363C139.531 71.3369 139.531 76.1374 136.363 76.1374Z" fill="#313192"/>
<path d="M136.363 66.5368H131.562V61.7363H136.363C139.531 61.7363 139.531 66.5368 136.363 66.5368Z" fill="#313192"/>
<path d="M136.363 56.9353H131.562V52.1348H136.363C139.531 52.1348 139.531 56.9353 136.363 56.9353Z" fill="#313192"/>
<path d="M145.964 90.8591H131.562V86.0586H145.964C149.132 86.0586 149.132 90.8591 145.964 90.8591Z" fill="#313192"/>
<path d="M145.964 47.3347H131.562V42.5342H145.964C149.132 42.5342 149.132 47.3347 145.964 47.3347Z" fill="#313192"/>
<g clip-path="url(#clip1)">
<path d="M180.971 89.0282L180.914 89.0861C179.597 90.4031 179.384 92.4457 180.36 94.0318C181.609 96.0605 182.33 98.4475 182.33 101C182.33 108.35 176.35 114.33 169 114.33V122.378C180.807 122.378 190.378 112.806 190.378 101C190.378 96.8718 189.208 93.0172 187.182 89.7493C185.827 87.5639 182.79 87.2098 180.971 89.0282Z" fill="#91EBBC"/>
<path d="M184.117 116.117C182.545 117.688 179.997 117.688 178.426 116.117C176.854 114.545 176.854 111.997 178.426 110.426L178.423 110.42C176.009 112.834 172.676 114.33 169 114.33V122.378C174.903 122.378 180.248 119.985 184.117 116.117Z" fill="#41DD8C"/>
<path d="M157.086 112.913C158.403 111.596 158.616 109.553 157.639 107.967C156.39 105.938 155.669 103.551 155.669 100.999C155.669 93.6491 161.649 87.6693 168.999 87.6693V79.6211C157.192 79.6211 147.621 89.1924 147.621 100.999C147.621 105.127 148.791 108.982 150.817 112.25C152.172 114.435 155.21 114.789 157.028 112.971L157.086 112.913Z" fill="#91EBBC"/>
<path d="M153.883 85.8826C155.454 84.3111 158.002 84.3111 159.574 85.8826C161.145 87.4542 161.145 90.0021 159.574 91.5736L159.579 91.5772C161.993 89.1641 165.325 87.6694 169 87.6694V79.6211C163.096 79.6211 157.751 82.0139 153.883 85.8826Z" fill="#41DD8C"/>
<path d="M169.075 76.413L176.769 82.0971C177.857 82.9014 177.857 84.5294 176.769 85.3337L169.075 91.0178C167.747 91.999 165.867 91.0508 165.867 89.3994V78.0313C165.867 76.38 167.747 75.4317 169.075 76.413Z" fill="#91EBBC"/>
<path d="M176.769 82.0814L169.075 76.3974C167.747 75.4161 165.867 76.3644 165.867 78.0157V88.042C165.867 82.1893 172.953 79.2625 176.769 82.0814Z" fill="#41DD8C"/>
<path d="M168.924 125.586L161.23 119.902C160.142 119.098 160.142 117.47 161.23 116.665L168.924 110.981C170.252 110 172.132 110.948 172.132 112.6V123.968C172.132 125.619 170.252 126.567 168.924 125.586Z" fill="#91EBBC"/>
<path d="M161.23 119.919L168.924 125.603C170.252 126.584 172.132 125.636 172.132 123.984V113.958C172.132 119.811 165.046 122.738 161.23 119.919Z" fill="#41DD8C"/>
</g>
</g>
<defs>
<clipPath id="clip0">
<rect width="117.041" height="117.041" fill="white" transform="translate(77.0273 8.77832)"/>
</clipPath>
<clipPath id="clip1">
<rect width="50" height="50" fill="white" transform="translate(144 76)"/>
</clipPath>
</defs>
</svg>
