<svg width="8" height="9" viewBox="0 0 8 9" fill="none" xmlns="http://www.w3.org/2000/svg">
<path d="M3.77941 0.836999C3.82083 0.749043 3.90629 0.693359 3.99988 0.693359C4.09346 0.693342 4.17893 0.749026 4.22035 0.836982L5.17932 2.87337C5.2695 3.06485 5.44378 3.19761 5.6454 3.2283L7.78949 3.555C7.8821 3.56912 7.95903 3.6371 7.98797 3.7304C8.01686 3.82368 7.99278 3.9261 7.92576 3.99457L6.37441 5.57985C6.22852 5.72894 6.16196 5.94369 6.19637 6.15414L6.56242 8.39214C6.57823 8.48882 6.54032 8.58652 6.4646 8.64413C6.3889 8.70182 6.28853 8.70939 6.2057 8.66375L4.28794 7.60714C4.10762 7.50779 3.89218 7.50779 3.71183 7.60718L1.79424 8.66373C1.7114 8.70938 1.61103 8.70174 1.53533 8.6441C1.45961 8.58644 1.42172 8.48872 1.43752 8.39207L1.80374 6.15424C1.8382 5.94373 1.77162 5.72894 1.6257 5.57982L0.0742525 3.99459C0.00725187 3.92612 -0.0168833 3.8237 0.0120399 3.73042C0.0409632 3.63713 0.117897 3.56915 0.21051 3.55501L2.35453 3.22833C2.55615 3.19761 2.73045 3.06487 2.82063 2.87336L3.77941 0.836999Z" fill="#E54DC0"/>
</svg>
