<svg width="12" height="12" viewBox="0 0 12 12" fill="none" xmlns="http://www.w3.org/2000/svg">
<path d="M6 0.9C3.18784 0.9 0.9 3.18772 0.9 6C0.9 8.81228 3.18784 11.1 6 11.1C8.81228 11.1 11.1 8.81228 11.1 6C11.1 3.18772 8.81216 0.9 6 0.9ZM6 10.1701C3.70074 10.1701 1.82992 8.29926 1.82992 6C1.82992 3.70074 3.70074 1.82992 6 1.82992C8.29927 1.82992 10.1701 3.70072 10.1701 5.99988C10.1701 8.29927 8.29926 10.1701 6 10.1701Z" fill="#96999C" stroke="#96999C" stroke-width="0.2"/>
<path d="M7.54856 5.90023H6.21083V4.00952C6.21083 3.77103 6.01753 3.57773 5.77905 3.57773C5.54056 3.57773 5.34727 3.77103 5.34727 4.00952V6.33201C5.34727 6.5705 5.54056 6.7638 5.77905 6.7638H7.54856C7.78705 6.7638 7.98034 6.5705 7.98034 6.33201C7.98034 6.09353 7.78705 5.90023 7.54856 5.90023Z" fill="#96999C" stroke="#96999C" stroke-width="0.2"/>
</svg>
