<svg width="57" height="48" viewBox="0 0 57 48" fill="none" xmlns="http://www.w3.org/2000/svg">
<rect width="56" height="48" transform="translate(0.0429688)" fill="#F8F9FA"/>
<g clip-path="url(#clip0)">
<path d="M40.043 16.5585C39.1505 16.95 38.1995 17.2095 37.208 17.3355C38.228 16.7265 39.0065 15.7695 39.3725 14.616C38.4215 15.183 37.3715 15.5835 36.2525 15.807C35.3495 14.8455 34.0625 14.25 32.6585 14.25C29.9345 14.25 27.7415 16.461 27.7415 19.1715C27.7415 19.5615 27.7745 19.9365 27.8555 20.2935C23.765 20.094 20.1455 18.1335 17.714 15.147C17.2895 15.8835 17.0405 16.7265 17.0405 17.634C17.0405 19.338 17.918 20.8485 19.226 21.723C18.4355 21.708 17.66 21.4785 17.003 21.117C17.003 21.132 17.003 21.1515 17.003 21.171C17.003 23.562 18.7085 25.548 20.945 26.0055C20.5445 26.115 20.108 26.1675 19.655 26.1675C19.34 26.1675 19.022 26.1495 18.7235 26.0835C19.361 28.032 21.17 29.4645 23.321 29.511C21.647 30.8205 19.5215 31.6095 17.2205 31.6095C16.817 31.6095 16.43 31.5915 16.043 31.542C18.2225 32.9475 20.8055 33.75 23.591 33.75C32.645 33.75 37.595 26.25 37.595 19.749C37.595 19.5315 37.5875 19.3215 37.577 19.113C38.5535 18.42 39.374 17.5545 40.043 16.5585Z" fill="black"/>
</g>
<defs>
<clipPath id="clip0">
<rect width="24" height="24" fill="white" transform="translate(16.043 12)"/>
</clipPath>
</defs>
</svg>
